<mxfile host="app.diagrams.net" modified="2024-04-05T21:47:45.213Z" agent="Mozilla/5.0 (Windows NT 10.0; Win64; x64; rv:124.0) Gecko/20100101 Firefox/124.0" etag="mGohzZtYVnmyUE3lggCI" version="24.2.2" type="device">
  <diagram name="Page-1" id="S4mJ12Emkxg-UGApGmkY">
    <mxGraphModel dx="3818" dy="1788" grid="1" gridSize="10" guides="1" tooltips="1" connect="1" arrows="1" fold="1" page="1" pageScale="1" pageWidth="850" pageHeight="1100" math="0" shadow="0">
      <root>
        <mxCell id="0" />
        <mxCell id="1" parent="0" />
        <mxCell id="NLKcnla9IsjFhdhOW6eh-43" value="" style="rounded=0;whiteSpace=wrap;html=1;fillColor=default;" vertex="1" parent="1">
          <mxGeometry x="-50" y="10" width="1530" height="680" as="geometry" />
        </mxCell>
        <mxCell id="NLKcnla9IsjFhdhOW6eh-95" style="edgeStyle=orthogonalEdgeStyle;rounded=0;orthogonalLoop=1;jettySize=auto;html=1;entryX=0;entryY=0.5;entryDx=0;entryDy=0;" edge="1" parent="1" source="NLKcnla9IsjFhdhOW6eh-9" target="NLKcnla9IsjFhdhOW6eh-34">
          <mxGeometry relative="1" as="geometry" />
        </mxCell>
        <mxCell id="NLKcnla9IsjFhdhOW6eh-111" style="edgeStyle=orthogonalEdgeStyle;rounded=0;orthogonalLoop=1;jettySize=auto;html=1;exitX=0.5;exitY=1;exitDx=0;exitDy=0;entryX=0;entryY=0.5;entryDx=0;entryDy=0;elbow=vertical;" edge="1" parent="1" source="NLKcnla9IsjFhdhOW6eh-9" target="NLKcnla9IsjFhdhOW6eh-36">
          <mxGeometry relative="1" as="geometry">
            <Array as="points">
              <mxPoint x="1200" y="390" />
              <mxPoint x="1120" y="390" />
              <mxPoint x="1120" y="510" />
            </Array>
          </mxGeometry>
        </mxCell>
        <mxCell id="NLKcnla9IsjFhdhOW6eh-9" value="CURRENT SENSE CIRCUIT" style="rounded=0;whiteSpace=wrap;html=1;" vertex="1" parent="1">
          <mxGeometry x="1140" y="320" width="120" height="60" as="geometry" />
        </mxCell>
        <mxCell id="NLKcnla9IsjFhdhOW6eh-71" style="edgeStyle=orthogonalEdgeStyle;rounded=0;orthogonalLoop=1;jettySize=auto;html=1;exitX=0.25;exitY=1;exitDx=0;exitDy=0;startArrow=classic;startFill=1;endArrow=none;endFill=0;" edge="1" parent="1">
          <mxGeometry relative="1" as="geometry">
            <mxPoint x="680" y="679.9957142857145" as="targetPoint" />
            <mxPoint x="680" y="629.71" as="sourcePoint" />
          </mxGeometry>
        </mxCell>
        <mxCell id="NLKcnla9IsjFhdhOW6eh-74" value="5V" style="edgeLabel;html=1;align=center;verticalAlign=middle;resizable=0;points=[];" vertex="1" connectable="0" parent="NLKcnla9IsjFhdhOW6eh-71">
          <mxGeometry x="0.1072" y="-2" relative="1" as="geometry">
            <mxPoint as="offset" />
          </mxGeometry>
        </mxCell>
        <mxCell id="NLKcnla9IsjFhdhOW6eh-65" style="rounded=0;orthogonalLoop=1;jettySize=auto;html=1;exitX=0;exitY=0.5;exitDx=0;exitDy=0;edgeStyle=elbowEdgeStyle;endArrow=none;endFill=0;startArrow=classic;startFill=1;elbow=vertical;entryX=0;entryY=0.5;entryDx=0;entryDy=0;" edge="1" parent="1" source="NLKcnla9IsjFhdhOW6eh-23" target="NLKcnla9IsjFhdhOW6eh-43">
          <mxGeometry relative="1" as="geometry">
            <mxPoint x="-20" y="350" as="targetPoint" />
          </mxGeometry>
        </mxCell>
        <mxCell id="NLKcnla9IsjFhdhOW6eh-66" value="VBAT" style="edgeLabel;html=1;align=center;verticalAlign=middle;resizable=0;points=[];" vertex="1" connectable="0" parent="NLKcnla9IsjFhdhOW6eh-65">
          <mxGeometry x="0.26" relative="1" as="geometry">
            <mxPoint x="10" as="offset" />
          </mxGeometry>
        </mxCell>
        <mxCell id="NLKcnla9IsjFhdhOW6eh-68" style="edgeStyle=orthogonalEdgeStyle;rounded=0;orthogonalLoop=1;jettySize=auto;html=1;exitX=1;exitY=0.5;exitDx=0;exitDy=0;entryX=0;entryY=0.5;entryDx=0;entryDy=0;" edge="1" parent="1" source="NLKcnla9IsjFhdhOW6eh-23" target="NLKcnla9IsjFhdhOW6eh-67">
          <mxGeometry relative="1" as="geometry" />
        </mxCell>
        <mxCell id="NLKcnla9IsjFhdhOW6eh-116" style="edgeStyle=orthogonalEdgeStyle;rounded=0;orthogonalLoop=1;jettySize=auto;html=1;exitX=0.5;exitY=0;exitDx=0;exitDy=0;entryX=0.25;entryY=1;entryDx=0;entryDy=0;" edge="1" parent="1" source="NLKcnla9IsjFhdhOW6eh-23" target="NLKcnla9IsjFhdhOW6eh-35">
          <mxGeometry relative="1" as="geometry" />
        </mxCell>
        <mxCell id="NLKcnla9IsjFhdhOW6eh-23" value="&lt;div&gt;REVERSE POLARITY&lt;/div&gt;&lt;div&gt;PROTECTION&lt;br&gt;&lt;/div&gt;" style="rounded=0;whiteSpace=wrap;html=1;" vertex="1" parent="1">
          <mxGeometry x="30" y="310" width="200" height="80" as="geometry" />
        </mxCell>
        <mxCell id="NLKcnla9IsjFhdhOW6eh-101" style="edgeStyle=orthogonalEdgeStyle;rounded=0;orthogonalLoop=1;jettySize=auto;html=1;exitX=0.5;exitY=0;exitDx=0;exitDy=0;entryX=0.5;entryY=1;entryDx=0;entryDy=0;shape=flexArrow;" edge="1" parent="1" source="NLKcnla9IsjFhdhOW6eh-34" target="NLKcnla9IsjFhdhOW6eh-100">
          <mxGeometry relative="1" as="geometry" />
        </mxCell>
        <mxCell id="NLKcnla9IsjFhdhOW6eh-113" style="edgeStyle=orthogonalEdgeStyle;rounded=0;orthogonalLoop=1;jettySize=auto;html=1;exitX=0.5;exitY=1;exitDx=0;exitDy=0;shape=flexArrow;" edge="1" parent="1" source="NLKcnla9IsjFhdhOW6eh-34" target="NLKcnla9IsjFhdhOW6eh-112">
          <mxGeometry relative="1" as="geometry" />
        </mxCell>
        <mxCell id="NLKcnla9IsjFhdhOW6eh-34" value="MCU" style="rounded=0;whiteSpace=wrap;html=1;" vertex="1" parent="1">
          <mxGeometry x="1300" y="320" width="120" height="60" as="geometry" />
        </mxCell>
        <mxCell id="NLKcnla9IsjFhdhOW6eh-35" value="&lt;div&gt;STATE INDICATION&lt;/div&gt;CIRCUIT" style="rounded=0;whiteSpace=wrap;html=1;" vertex="1" parent="1">
          <mxGeometry x="270" y="145" width="230" height="90" as="geometry" />
        </mxCell>
        <mxCell id="NLKcnla9IsjFhdhOW6eh-36" value="OVERCURRENT PROTECTION" style="rounded=0;whiteSpace=wrap;html=1;" vertex="1" parent="1">
          <mxGeometry x="1140" y="480" width="120" height="60" as="geometry" />
        </mxCell>
        <mxCell id="NLKcnla9IsjFhdhOW6eh-37" value="CURRENT SINK" style="rounded=0;whiteSpace=wrap;html=1;" vertex="1" parent="1">
          <mxGeometry x="870" y="460" width="120" height="60" as="geometry" />
        </mxCell>
        <mxCell id="NLKcnla9IsjFhdhOW6eh-61" style="edgeStyle=orthogonalEdgeStyle;rounded=0;orthogonalLoop=1;jettySize=auto;html=1;exitX=1;exitY=0.5;exitDx=0;exitDy=0;entryX=0;entryY=0.5;entryDx=0;entryDy=0;shape=flexArrow;" edge="1" parent="1" source="NLKcnla9IsjFhdhOW6eh-44" target="NLKcnla9IsjFhdhOW6eh-43">
          <mxGeometry relative="1" as="geometry" />
        </mxCell>
        <mxCell id="NLKcnla9IsjFhdhOW6eh-44" value="&lt;font style=&quot;font-size: 26px;&quot;&gt;INPUT BLOCK&lt;/font&gt;" style="rounded=0;whiteSpace=wrap;html=1;" vertex="1" parent="1">
          <mxGeometry x="-220" y="10" width="120" height="680" as="geometry" />
        </mxCell>
        <mxCell id="NLKcnla9IsjFhdhOW6eh-46" value="&lt;font style=&quot;font-size: 28px;&quot;&gt;OUTPUT BLOCK&lt;/font&gt;" style="rounded=0;whiteSpace=wrap;html=1;" vertex="1" parent="1">
          <mxGeometry x="1530" y="10" width="120" height="680" as="geometry" />
        </mxCell>
        <mxCell id="NLKcnla9IsjFhdhOW6eh-55" style="edgeStyle=orthogonalEdgeStyle;rounded=0;orthogonalLoop=1;jettySize=auto;html=1;exitX=0.5;exitY=0;exitDx=0;exitDy=0;entryX=0.5;entryY=1;entryDx=0;entryDy=0;shape=flexArrow;" edge="1" parent="1" source="NLKcnla9IsjFhdhOW6eh-47" target="NLKcnla9IsjFhdhOW6eh-43">
          <mxGeometry relative="1" as="geometry" />
        </mxCell>
        <mxCell id="NLKcnla9IsjFhdhOW6eh-47" value="&lt;font style=&quot;font-size: 35px;&quot;&gt;EEZ DIB BUS&lt;/font&gt;" style="rounded=0;whiteSpace=wrap;html=1;" vertex="1" parent="1">
          <mxGeometry x="-50" y="740" width="1530" height="60" as="geometry" />
        </mxCell>
        <mxCell id="NLKcnla9IsjFhdhOW6eh-51" value="User Inputs" style="rounded=0;whiteSpace=wrap;html=1;" vertex="1" parent="1">
          <mxGeometry x="-380" y="110" width="120" height="60" as="geometry" />
        </mxCell>
        <mxCell id="NLKcnla9IsjFhdhOW6eh-54" value="OpenEPT Rev 1 " style="text;html=1;align=center;verticalAlign=middle;whiteSpace=wrap;rounded=0;" vertex="1" parent="1">
          <mxGeometry x="-40" y="650" width="100" height="30" as="geometry" />
        </mxCell>
        <mxCell id="NLKcnla9IsjFhdhOW6eh-56" style="edgeStyle=orthogonalEdgeStyle;rounded=0;orthogonalLoop=1;jettySize=auto;html=1;exitX=1;exitY=0.5;exitDx=0;exitDy=0;entryX=-0.007;entryY=0.5;entryDx=0;entryDy=0;entryPerimeter=0;shape=flexArrow;" edge="1" parent="1" target="NLKcnla9IsjFhdhOW6eh-46">
          <mxGeometry relative="1" as="geometry">
            <mxPoint x="1480" y="349.92" as="sourcePoint" />
            <mxPoint x="1506.0399999999995" y="349.92" as="targetPoint" />
          </mxGeometry>
        </mxCell>
        <mxCell id="NLKcnla9IsjFhdhOW6eh-60" style="edgeStyle=orthogonalEdgeStyle;rounded=0;orthogonalLoop=1;jettySize=auto;html=1;exitX=1;exitY=0.5;exitDx=0;exitDy=0;entryX=0;entryY=0.191;entryDx=0;entryDy=0;entryPerimeter=0;shape=flexArrow;" edge="1" parent="1" source="NLKcnla9IsjFhdhOW6eh-51" target="NLKcnla9IsjFhdhOW6eh-44">
          <mxGeometry relative="1" as="geometry" />
        </mxCell>
        <mxCell id="NLKcnla9IsjFhdhOW6eh-62" style="edgeStyle=orthogonalEdgeStyle;rounded=0;orthogonalLoop=1;jettySize=auto;html=1;exitX=1;exitY=0.5;exitDx=0;exitDy=0;entryX=-0.008;entryY=0.795;entryDx=0;entryDy=0;entryPerimeter=0;" edge="1" parent="1" target="NLKcnla9IsjFhdhOW6eh-44">
          <mxGeometry relative="1" as="geometry">
            <mxPoint x="-250" y="550" as="sourcePoint" />
          </mxGeometry>
        </mxCell>
        <mxCell id="NLKcnla9IsjFhdhOW6eh-63" value="LiPo battery" style="rounded=0;whiteSpace=wrap;html=1;" vertex="1" parent="1">
          <mxGeometry x="-370" y="520" width="120" height="60" as="geometry" />
        </mxCell>
        <mxCell id="NLKcnla9IsjFhdhOW6eh-70" style="edgeStyle=orthogonalEdgeStyle;rounded=0;orthogonalLoop=1;jettySize=auto;html=1;exitX=1;exitY=0.5;exitDx=0;exitDy=0;entryX=0;entryY=0.5;entryDx=0;entryDy=0;" edge="1" parent="1" source="NLKcnla9IsjFhdhOW6eh-67" target="NLKcnla9IsjFhdhOW6eh-69">
          <mxGeometry relative="1" as="geometry" />
        </mxCell>
        <mxCell id="NLKcnla9IsjFhdhOW6eh-67" value="OVERVOLTAGE PROTECTION" style="rounded=0;whiteSpace=wrap;html=1;" vertex="1" parent="1">
          <mxGeometry x="270" y="310" width="200" height="80" as="geometry" />
        </mxCell>
        <mxCell id="NLKcnla9IsjFhdhOW6eh-90" style="edgeStyle=orthogonalEdgeStyle;rounded=0;orthogonalLoop=1;jettySize=auto;html=1;exitX=1;exitY=0.5;exitDx=0;exitDy=0;entryX=0;entryY=0.5;entryDx=0;entryDy=0;" edge="1" parent="1" source="NLKcnla9IsjFhdhOW6eh-69" target="NLKcnla9IsjFhdhOW6eh-89">
          <mxGeometry relative="1" as="geometry" />
        </mxCell>
        <mxCell id="NLKcnla9IsjFhdhOW6eh-69" value="&lt;div&gt;REVERSE POLARITY&lt;/div&gt;&lt;div&gt;PROTECTION&lt;br&gt;&lt;/div&gt;" style="rounded=0;whiteSpace=wrap;html=1;" vertex="1" parent="1">
          <mxGeometry x="510" y="310" width="200" height="80" as="geometry" />
        </mxCell>
        <mxCell id="NLKcnla9IsjFhdhOW6eh-72" style="edgeStyle=orthogonalEdgeStyle;rounded=0;orthogonalLoop=1;jettySize=auto;html=1;exitX=0.25;exitY=1;exitDx=0;exitDy=0;startArrow=classic;startFill=1;endArrow=none;endFill=0;" edge="1" parent="1">
          <mxGeometry relative="1" as="geometry">
            <mxPoint x="709.86" y="679.9957142857145" as="targetPoint" />
            <mxPoint x="709.86" y="629.71" as="sourcePoint" />
          </mxGeometry>
        </mxCell>
        <mxCell id="NLKcnla9IsjFhdhOW6eh-75" value="12V" style="edgeLabel;html=1;align=center;verticalAlign=middle;resizable=0;points=[];" vertex="1" connectable="0" parent="NLKcnla9IsjFhdhOW6eh-72">
          <mxGeometry x="0.0966" relative="1" as="geometry">
            <mxPoint as="offset" />
          </mxGeometry>
        </mxCell>
        <mxCell id="NLKcnla9IsjFhdhOW6eh-73" style="edgeStyle=orthogonalEdgeStyle;rounded=0;orthogonalLoop=1;jettySize=auto;html=1;exitX=0.25;exitY=1;exitDx=0;exitDy=0;startArrow=classic;startFill=1;endArrow=none;endFill=0;" edge="1" parent="1">
          <mxGeometry relative="1" as="geometry">
            <mxPoint x="740" y="679.9957142857145" as="targetPoint" />
            <mxPoint x="740" y="629.71" as="sourcePoint" />
          </mxGeometry>
        </mxCell>
        <mxCell id="NLKcnla9IsjFhdhOW6eh-76" value="GND" style="edgeLabel;html=1;align=center;verticalAlign=middle;resizable=0;points=[];" vertex="1" connectable="0" parent="NLKcnla9IsjFhdhOW6eh-73">
          <mxGeometry x="0.1307" relative="1" as="geometry">
            <mxPoint as="offset" />
          </mxGeometry>
        </mxCell>
        <mxCell id="NLKcnla9IsjFhdhOW6eh-77" value="CIRCUIT POWER SUPPLY" style="rounded=0;whiteSpace=wrap;html=1;" vertex="1" parent="1">
          <mxGeometry x="610" y="549.71" width="200" height="80" as="geometry" />
        </mxCell>
        <mxCell id="NLKcnla9IsjFhdhOW6eh-78" style="edgeStyle=orthogonalEdgeStyle;rounded=0;orthogonalLoop=1;jettySize=auto;html=1;exitX=0.25;exitY=1;exitDx=0;exitDy=0;startArrow=classic;startFill=1;endArrow=none;endFill=0;" edge="1" parent="1">
          <mxGeometry relative="1" as="geometry">
            <mxPoint x="664.71" y="549.7057142857145" as="targetPoint" />
            <mxPoint x="664.71" y="499.42" as="sourcePoint" />
          </mxGeometry>
        </mxCell>
        <mxCell id="NLKcnla9IsjFhdhOW6eh-79" value="5V" style="edgeLabel;html=1;align=center;verticalAlign=middle;resizable=0;points=[];" vertex="1" connectable="0" parent="NLKcnla9IsjFhdhOW6eh-78">
          <mxGeometry x="0.1072" y="-2" relative="1" as="geometry">
            <mxPoint x="2" as="offset" />
          </mxGeometry>
        </mxCell>
        <mxCell id="NLKcnla9IsjFhdhOW6eh-80" style="edgeStyle=orthogonalEdgeStyle;rounded=0;orthogonalLoop=1;jettySize=auto;html=1;exitX=0.25;exitY=1;exitDx=0;exitDy=0;startArrow=classic;startFill=1;endArrow=none;endFill=0;" edge="1" parent="1">
          <mxGeometry relative="1" as="geometry">
            <mxPoint x="694.4200000000001" y="549.7057142857145" as="targetPoint" />
            <mxPoint x="694.4200000000001" y="499.42" as="sourcePoint" />
          </mxGeometry>
        </mxCell>
        <mxCell id="NLKcnla9IsjFhdhOW6eh-81" value="-5V" style="edgeLabel;html=1;align=center;verticalAlign=middle;resizable=0;points=[];" vertex="1" connectable="0" parent="NLKcnla9IsjFhdhOW6eh-80">
          <mxGeometry x="0.1072" y="-2" relative="1" as="geometry">
            <mxPoint x="2" as="offset" />
          </mxGeometry>
        </mxCell>
        <mxCell id="NLKcnla9IsjFhdhOW6eh-82" style="edgeStyle=orthogonalEdgeStyle;rounded=0;orthogonalLoop=1;jettySize=auto;html=1;exitX=0.25;exitY=1;exitDx=0;exitDy=0;startArrow=classic;startFill=1;endArrow=none;endFill=0;" edge="1" parent="1">
          <mxGeometry relative="1" as="geometry">
            <mxPoint x="724.71" y="549.7057142857145" as="targetPoint" />
            <mxPoint x="724.71" y="499.42" as="sourcePoint" />
          </mxGeometry>
        </mxCell>
        <mxCell id="NLKcnla9IsjFhdhOW6eh-83" value="5V" style="edgeLabel;html=1;align=center;verticalAlign=middle;resizable=0;points=[];" vertex="1" connectable="0" parent="NLKcnla9IsjFhdhOW6eh-82">
          <mxGeometry x="0.1072" y="-2" relative="1" as="geometry">
            <mxPoint as="offset" />
          </mxGeometry>
        </mxCell>
        <mxCell id="NLKcnla9IsjFhdhOW6eh-85" value="3V3" style="edgeLabel;html=1;align=center;verticalAlign=middle;resizable=0;points=[];" vertex="1" connectable="0" parent="NLKcnla9IsjFhdhOW6eh-82">
          <mxGeometry x="0.074" y="-5" relative="1" as="geometry">
            <mxPoint x="5" as="offset" />
          </mxGeometry>
        </mxCell>
        <mxCell id="NLKcnla9IsjFhdhOW6eh-86" style="edgeStyle=orthogonalEdgeStyle;rounded=0;orthogonalLoop=1;jettySize=auto;html=1;exitX=0.25;exitY=1;exitDx=0;exitDy=0;startArrow=classic;startFill=1;endArrow=none;endFill=0;" edge="1" parent="1">
          <mxGeometry relative="1" as="geometry">
            <mxPoint x="754.71" y="549.7057142857145" as="targetPoint" />
            <mxPoint x="754.71" y="499.42" as="sourcePoint" />
          </mxGeometry>
        </mxCell>
        <mxCell id="NLKcnla9IsjFhdhOW6eh-87" value="GND" style="edgeLabel;html=1;align=center;verticalAlign=middle;resizable=0;points=[];" vertex="1" connectable="0" parent="NLKcnla9IsjFhdhOW6eh-86">
          <mxGeometry x="0.1307" relative="1" as="geometry">
            <mxPoint as="offset" />
          </mxGeometry>
        </mxCell>
        <mxCell id="NLKcnla9IsjFhdhOW6eh-106" style="edgeStyle=orthogonalEdgeStyle;rounded=0;orthogonalLoop=1;jettySize=auto;html=1;exitX=0;exitY=0.5;exitDx=0;exitDy=0;startArrow=classic;startFill=1;endArrow=none;endFill=0;" edge="1" parent="1" source="NLKcnla9IsjFhdhOW6eh-88">
          <mxGeometry relative="1" as="geometry">
            <mxPoint x="930" y="350.1428571428571" as="targetPoint" />
          </mxGeometry>
        </mxCell>
        <mxCell id="NLKcnla9IsjFhdhOW6eh-107" style="edgeStyle=orthogonalEdgeStyle;rounded=0;orthogonalLoop=1;jettySize=auto;html=1;exitX=1;exitY=0.5;exitDx=0;exitDy=0;entryX=0;entryY=0.5;entryDx=0;entryDy=0;" edge="1" parent="1" source="NLKcnla9IsjFhdhOW6eh-88" target="NLKcnla9IsjFhdhOW6eh-9">
          <mxGeometry relative="1" as="geometry" />
        </mxCell>
        <mxCell id="NLKcnla9IsjFhdhOW6eh-88" value="LOW PASS FILTER" style="rounded=0;whiteSpace=wrap;html=1;" vertex="1" parent="1">
          <mxGeometry x="980" y="320" width="120" height="60" as="geometry" />
        </mxCell>
        <mxCell id="NLKcnla9IsjFhdhOW6eh-91" style="edgeStyle=orthogonalEdgeStyle;rounded=0;orthogonalLoop=1;jettySize=auto;html=1;exitX=1;exitY=0.5;exitDx=0;exitDy=0;entryX=0.5;entryY=0;entryDx=0;entryDy=0;" edge="1" parent="1" source="NLKcnla9IsjFhdhOW6eh-89" target="NLKcnla9IsjFhdhOW6eh-37">
          <mxGeometry relative="1" as="geometry" />
        </mxCell>
        <mxCell id="NLKcnla9IsjFhdhOW6eh-89" value="SHUNT" style="rounded=0;whiteSpace=wrap;html=1;" vertex="1" parent="1">
          <mxGeometry x="750" y="320" width="120" height="60" as="geometry" />
        </mxCell>
        <mxCell id="NLKcnla9IsjFhdhOW6eh-94" style="edgeStyle=orthogonalEdgeStyle;rounded=0;orthogonalLoop=1;jettySize=auto;html=1;entryX=0;entryY=0.75;entryDx=0;entryDy=0;" edge="1" parent="1" source="NLKcnla9IsjFhdhOW6eh-93" target="NLKcnla9IsjFhdhOW6eh-34">
          <mxGeometry relative="1" as="geometry" />
        </mxCell>
        <mxCell id="NLKcnla9IsjFhdhOW6eh-93" value="BATTERY VOLTAGE SENSE CIRCUIT " style="rounded=0;whiteSpace=wrap;html=1;" vertex="1" parent="1">
          <mxGeometry x="1140" y="400" width="120" height="60" as="geometry" />
        </mxCell>
        <mxCell id="NLKcnla9IsjFhdhOW6eh-96" value="" style="endArrow=classic;html=1;rounded=0;entryX=0;entryY=0.5;entryDx=0;entryDy=0;edgeStyle=orthogonalEdgeStyle;" edge="1" parent="1" target="NLKcnla9IsjFhdhOW6eh-97">
          <mxGeometry width="50" height="50" relative="1" as="geometry">
            <mxPoint x="930" y="350" as="sourcePoint" />
            <mxPoint x="980" y="300" as="targetPoint" />
            <Array as="points">
              <mxPoint x="930" y="100" />
            </Array>
          </mxGeometry>
        </mxCell>
        <mxCell id="NLKcnla9IsjFhdhOW6eh-97" value="VBAT TO 5V OUT CONVERSION CIRCUIT" style="rounded=0;whiteSpace=wrap;html=1;" vertex="1" parent="1">
          <mxGeometry x="980" y="70" width="120" height="60" as="geometry" />
        </mxCell>
        <mxCell id="NLKcnla9IsjFhdhOW6eh-115" style="rounded=0;orthogonalLoop=1;jettySize=auto;html=1;exitX=1;exitY=0.5;exitDx=0;exitDy=0;entryX=1;entryY=0.243;entryDx=0;entryDy=0;entryPerimeter=0;" edge="1" parent="1" source="NLKcnla9IsjFhdhOW6eh-98" target="NLKcnla9IsjFhdhOW6eh-43">
          <mxGeometry relative="1" as="geometry" />
        </mxCell>
        <mxCell id="NLKcnla9IsjFhdhOW6eh-98" value="VBAT TO 3V3 OUT CONVERSION CURCUIT" style="rounded=0;whiteSpace=wrap;html=1;" vertex="1" parent="1">
          <mxGeometry x="980" y="145" width="120" height="60" as="geometry" />
        </mxCell>
        <mxCell id="NLKcnla9IsjFhdhOW6eh-100" value="User Inputs" style="rounded=0;whiteSpace=wrap;html=1;" vertex="1" parent="1">
          <mxGeometry x="1300" y="230" width="120" height="60" as="geometry" />
        </mxCell>
        <mxCell id="NLKcnla9IsjFhdhOW6eh-102" value="" style="endArrow=classic;html=1;rounded=0;edgeStyle=orthogonalEdgeStyle;entryX=0;entryY=0.5;entryDx=0;entryDy=0;" edge="1" parent="1" target="NLKcnla9IsjFhdhOW6eh-98">
          <mxGeometry width="50" height="50" relative="1" as="geometry">
            <mxPoint x="930" y="358" as="sourcePoint" />
            <mxPoint x="960" y="180" as="targetPoint" />
            <Array as="points">
              <mxPoint x="930" y="175" />
            </Array>
          </mxGeometry>
        </mxCell>
        <mxCell id="NLKcnla9IsjFhdhOW6eh-103" value="" style="endArrow=classic;html=1;rounded=0;edgeStyle=orthogonalEdgeStyle;entryX=1;entryY=0.309;entryDx=0;entryDy=0;entryPerimeter=0;" edge="1" parent="1" target="NLKcnla9IsjFhdhOW6eh-43">
          <mxGeometry width="50" height="50" relative="1" as="geometry">
            <mxPoint x="930" y="350" as="sourcePoint" />
            <mxPoint x="960" y="197" as="targetPoint" />
            <Array as="points">
              <mxPoint x="930" y="220" />
            </Array>
          </mxGeometry>
        </mxCell>
        <mxCell id="NLKcnla9IsjFhdhOW6eh-110" style="edgeStyle=orthogonalEdgeStyle;rounded=0;orthogonalLoop=1;jettySize=auto;html=1;exitX=1;exitY=0.5;exitDx=0;exitDy=0;entryX=0.999;entryY=0.5;entryDx=0;entryDy=0;entryPerimeter=0;" edge="1" parent="1" source="NLKcnla9IsjFhdhOW6eh-34" target="NLKcnla9IsjFhdhOW6eh-43">
          <mxGeometry relative="1" as="geometry" />
        </mxCell>
        <mxCell id="NLKcnla9IsjFhdhOW6eh-112" value="RGB LED" style="rounded=0;whiteSpace=wrap;html=1;" vertex="1" parent="1">
          <mxGeometry x="1300" y="420" width="120" height="60" as="geometry" />
        </mxCell>
        <mxCell id="NLKcnla9IsjFhdhOW6eh-114" style="rounded=0;orthogonalLoop=1;jettySize=auto;html=1;exitX=1;exitY=0.5;exitDx=0;exitDy=0;entryX=1;entryY=0.132;entryDx=0;entryDy=0;entryPerimeter=0;" edge="1" parent="1" source="NLKcnla9IsjFhdhOW6eh-97" target="NLKcnla9IsjFhdhOW6eh-43">
          <mxGeometry relative="1" as="geometry" />
        </mxCell>
        <mxCell id="NLKcnla9IsjFhdhOW6eh-117" style="edgeStyle=orthogonalEdgeStyle;rounded=0;orthogonalLoop=1;jettySize=auto;html=1;exitX=0.5;exitY=0;exitDx=0;exitDy=0;entryX=0.509;entryY=0.989;entryDx=0;entryDy=0;entryPerimeter=0;" edge="1" parent="1" source="NLKcnla9IsjFhdhOW6eh-67" target="NLKcnla9IsjFhdhOW6eh-35">
          <mxGeometry relative="1" as="geometry" />
        </mxCell>
        <mxCell id="NLKcnla9IsjFhdhOW6eh-118" style="edgeStyle=orthogonalEdgeStyle;rounded=0;orthogonalLoop=1;jettySize=auto;html=1;exitX=0.5;exitY=0;exitDx=0;exitDy=0;entryX=0.75;entryY=1;entryDx=0;entryDy=0;" edge="1" parent="1" source="NLKcnla9IsjFhdhOW6eh-69" target="NLKcnla9IsjFhdhOW6eh-35">
          <mxGeometry relative="1" as="geometry" />
        </mxCell>
        <mxCell id="NLKcnla9IsjFhdhOW6eh-119" style="rounded=0;orthogonalLoop=1;jettySize=auto;html=1;exitX=0;exitY=0.25;exitDx=0;exitDy=0;entryX=0.843;entryY=0.346;entryDx=0;entryDy=0;entryPerimeter=0;" edge="1" parent="1" source="NLKcnla9IsjFhdhOW6eh-100" target="NLKcnla9IsjFhdhOW6eh-43">
          <mxGeometry relative="1" as="geometry" />
        </mxCell>
        <mxCell id="NLKcnla9IsjFhdhOW6eh-120" value="GPIO1" style="edgeLabel;html=1;align=center;verticalAlign=middle;resizable=0;points=[];" vertex="1" connectable="0" parent="NLKcnla9IsjFhdhOW6eh-119">
          <mxGeometry x="-0.0976" y="-1" relative="1" as="geometry">
            <mxPoint as="offset" />
          </mxGeometry>
        </mxCell>
        <mxCell id="NLKcnla9IsjFhdhOW6eh-121" value="" style="shape=image;html=1;verticalAlign=top;verticalLabelPosition=bottom;labelBackgroundColor=#ffffff;imageAspect=0;aspect=fixed;image=https://cdn4.iconfinder.com/data/icons/developer-set-3/128/other-128.png;rotation=-90;" vertex="1" parent="1">
          <mxGeometry x="1276" y="252" width="20" height="20" as="geometry" />
        </mxCell>
        <mxCell id="NLKcnla9IsjFhdhOW6eh-122" style="rounded=0;orthogonalLoop=1;jettySize=auto;html=1;exitX=0;exitY=0.25;exitDx=0;exitDy=0;entryX=0.843;entryY=0.346;entryDx=0;entryDy=0;entryPerimeter=0;" edge="1" parent="1">
          <mxGeometry relative="1" as="geometry">
            <mxPoint x="1300" y="280" as="sourcePoint" />
            <mxPoint x="1240" y="280" as="targetPoint" />
          </mxGeometry>
        </mxCell>
        <mxCell id="NLKcnla9IsjFhdhOW6eh-123" value="GPION" style="edgeLabel;html=1;align=center;verticalAlign=middle;resizable=0;points=[];" vertex="1" connectable="0" parent="NLKcnla9IsjFhdhOW6eh-122">
          <mxGeometry x="-0.0976" y="-1" relative="1" as="geometry">
            <mxPoint as="offset" />
          </mxGeometry>
        </mxCell>
        <mxCell id="NLKcnla9IsjFhdhOW6eh-134" value="USER JUMPERS" style="rounded=0;whiteSpace=wrap;html=1;" vertex="1" parent="1">
          <mxGeometry x="30" y="100" width="120" height="60" as="geometry" />
        </mxCell>
        <mxCell id="NLKcnla9IsjFhdhOW6eh-136" style="rounded=0;orthogonalLoop=1;jettySize=auto;html=1;exitX=0;exitY=0.176;exitDx=0;exitDy=0;entryX=0;entryY=0.191;entryDx=0;entryDy=0;entryPerimeter=0;shape=flexArrow;exitPerimeter=0;" edge="1" parent="1" source="NLKcnla9IsjFhdhOW6eh-43">
          <mxGeometry relative="1" as="geometry">
            <mxPoint x="-10" y="129.64" as="sourcePoint" />
            <mxPoint x="30" y="129.64" as="targetPoint" />
          </mxGeometry>
        </mxCell>
        <mxCell id="NLKcnla9IsjFhdhOW6eh-137" style="rounded=0;orthogonalLoop=1;jettySize=auto;html=1;exitX=1;exitY=0.25;exitDx=0;exitDy=0;entryX=0.196;entryY=0.154;entryDx=0;entryDy=0;entryPerimeter=0;" edge="1" parent="1" source="NLKcnla9IsjFhdhOW6eh-134" target="NLKcnla9IsjFhdhOW6eh-43">
          <mxGeometry relative="1" as="geometry" />
        </mxCell>
        <mxCell id="NLKcnla9IsjFhdhOW6eh-138" value="Load disable" style="edgeLabel;html=1;align=center;verticalAlign=middle;resizable=0;points=[];" vertex="1" connectable="0" parent="NLKcnla9IsjFhdhOW6eh-137">
          <mxGeometry x="-0.1753" relative="1" as="geometry">
            <mxPoint as="offset" />
          </mxGeometry>
        </mxCell>
        <mxCell id="NLKcnla9IsjFhdhOW6eh-140" style="rounded=0;orthogonalLoop=1;jettySize=auto;html=1;exitX=1;exitY=0.25;exitDx=0;exitDy=0;entryX=0.196;entryY=0.154;entryDx=0;entryDy=0;entryPerimeter=0;" edge="1" parent="1">
          <mxGeometry relative="1" as="geometry">
            <mxPoint x="150" y="145" as="sourcePoint" />
            <mxPoint x="250" y="145" as="targetPoint" />
          </mxGeometry>
        </mxCell>
        <mxCell id="NLKcnla9IsjFhdhOW6eh-141" value="Battery disable" style="edgeLabel;html=1;align=center;verticalAlign=middle;resizable=0;points=[];" vertex="1" connectable="0" parent="NLKcnla9IsjFhdhOW6eh-140">
          <mxGeometry x="-0.1753" relative="1" as="geometry">
            <mxPoint as="offset" />
          </mxGeometry>
        </mxCell>
        <mxCell id="NLKcnla9IsjFhdhOW6eh-142" value="" style="shape=image;html=1;verticalAlign=top;verticalLabelPosition=bottom;labelBackgroundColor=#ffffff;imageAspect=0;aspect=fixed;image=https://cdn4.iconfinder.com/data/icons/developer-set-3/128/other-128.png;rotation=-90;" vertex="1" parent="1">
          <mxGeometry x="150" y="120" width="20" height="20" as="geometry" />
        </mxCell>
        <mxCell id="NLKcnla9IsjFhdhOW6eh-143" style="rounded=0;orthogonalLoop=1;jettySize=auto;html=1;exitX=1;exitY=0.5;exitDx=0;exitDy=0;startArrow=classic;startFill=1;endArrow=none;endFill=0;entryX=0.431;entryY=0.265;entryDx=0;entryDy=0;entryPerimeter=0;" edge="1" parent="1" source="NLKcnla9IsjFhdhOW6eh-35" target="NLKcnla9IsjFhdhOW6eh-43">
          <mxGeometry relative="1" as="geometry">
            <mxPoint x="570" y="190" as="targetPoint" />
          </mxGeometry>
        </mxCell>
        <mxCell id="NLKcnla9IsjFhdhOW6eh-144" value="Overcurrent" style="edgeLabel;html=1;align=center;verticalAlign=middle;resizable=0;points=[];" vertex="1" connectable="0" parent="NLKcnla9IsjFhdhOW6eh-143">
          <mxGeometry x="0.0243" y="-1" relative="1" as="geometry">
            <mxPoint as="offset" />
          </mxGeometry>
        </mxCell>
        <mxCell id="NLKcnla9IsjFhdhOW6eh-147" style="rounded=0;orthogonalLoop=1;jettySize=auto;html=1;exitX=1;exitY=0.5;exitDx=0;exitDy=0;entryX=0.908;entryY=0.736;entryDx=0;entryDy=0;entryPerimeter=0;" edge="1" parent="1" source="NLKcnla9IsjFhdhOW6eh-36">
          <mxGeometry relative="1" as="geometry">
            <mxPoint x="1280" y="509.76" as="sourcePoint" />
            <mxPoint x="1359.2400000000002" y="510.2400000000001" as="targetPoint" />
          </mxGeometry>
        </mxCell>
        <mxCell id="NLKcnla9IsjFhdhOW6eh-148" value="Overcurrent" style="edgeLabel;html=1;align=center;verticalAlign=middle;resizable=0;points=[];" vertex="1" connectable="0" parent="NLKcnla9IsjFhdhOW6eh-147">
          <mxGeometry x="-0.351" relative="1" as="geometry">
            <mxPoint x="8" as="offset" />
          </mxGeometry>
        </mxCell>
      </root>
    </mxGraphModel>
  </diagram>
</mxfile>
